<svg xmlns="http://www.w3.org/2000/svg" width="16" height="16" viewBox="0 0 16 16" fill="none">
  <path d="M15.4682 14.0566C15.5379 14.1263 15.5931 14.2091 15.6308 14.3001C15.6686 14.3911 15.688 14.4887 15.688 14.5873C15.688 14.6858 15.6686 14.7834 15.6308 14.8744C15.5931 14.9655 15.5379 15.0482 15.4682 15.1179C15.3985 15.1876 15.3158 15.2429 15.2247 15.2806C15.1337 15.3183 15.0361 15.3377 14.9376 15.3377C14.839 15.3377 14.7414 15.3183 14.6504 15.2806C14.5593 15.2429 14.4766 15.1876 14.4069 15.1179L8.18755 8.89758L1.96818 15.1179C1.82745 15.2586 1.63657 15.3377 1.43755 15.3377C1.23853 15.3377 1.04766 15.2586 0.906926 15.1179C0.766195 14.9772 0.687134 14.7863 0.687134 14.5873C0.687134 14.3882 0.766195 14.1974 0.906926 14.0566L7.12724 7.83727L0.906926 1.6179C0.766195 1.47716 0.687134 1.28629 0.687134 1.08727C0.687134 0.888247 0.766195 0.697376 0.906926 0.556645C1.04766 0.415915 1.23853 0.336853 1.43755 0.336853C1.63657 0.336853 1.82745 0.415915 1.96818 0.556645L8.18755 6.77696L14.4069 0.556645C14.5477 0.415915 14.7385 0.336853 14.9376 0.336853C15.1366 0.336853 15.3274 0.415915 15.4682 0.556645C15.6089 0.697376 15.688 0.888247 15.688 1.08727C15.688 1.28629 15.6089 1.47716 15.4682 1.6179L9.24786 7.83727L15.4682 14.0566Z" fill="black"/>
</svg>