<svg xmlns="http://www.w3.org/2000/svg" width="28" height="28" viewBox="0 0 28 28" fill="none">
  <path d="M18.6667 22.1667C17.7385 22.1667 16.8482 21.7979 16.1918 21.1415C15.5355 20.4852 15.1667 19.5949 15.1667 18.6667C15.1667 17.7384 15.5355 16.8482 16.1918 16.1918C16.8482 15.5354 17.7385 15.1667 18.6667 15.1667C19.595 15.1667 20.4852 15.5354 21.1416 16.1918C21.798 16.8482 22.1667 17.7384 22.1667 18.6667C22.1667 19.5949 21.798 20.4852 21.1416 21.1415C20.4852 21.7979 19.595 22.1667 18.6667 22.1667ZM9.33337 22.1667C8.40512 22.1667 7.51488 21.7979 6.8585 21.1415C6.20212 20.4852 5.83337 19.5949 5.83337 18.6667C5.83337 17.7384 6.20212 16.8482 6.8585 16.1918C7.51488 15.5354 8.40512 15.1667 9.33337 15.1667C10.2616 15.1667 11.1519 15.5354 11.8082 16.1918C12.4646 16.8482 12.8334 17.7384 12.8334 18.6667C12.8334 19.5949 12.4646 20.4852 11.8082 21.1415C11.1519 21.7979 10.2616 22.1667 9.33337 22.1667ZM18.6667 12.8333C17.7385 12.8333 16.8482 12.4646 16.1918 11.8082C15.5355 11.1518 15.1667 10.2616 15.1667 9.33333C15.1667 8.40508 15.5355 7.51484 16.1918 6.85846C16.8482 6.20208 17.7385 5.83333 18.6667 5.83333C19.595 5.83333 20.4852 6.20208 21.1416 6.85846C21.798 7.51484 22.1667 8.40508 22.1667 9.33333C22.1667 10.2616 21.798 11.1518 21.1416 11.8082C20.4852 12.4646 19.595 12.8333 18.6667 12.8333ZM9.33337 12.8333C8.40512 12.8333 7.51488 12.4646 6.8585 11.8082C6.20212 11.1518 5.83337 10.2616 5.83337 9.33333C5.83337 8.40508 6.20212 7.51484 6.8585 6.85846C7.51488 6.20208 8.40512 5.83333 9.33337 5.83333C10.2616 5.83333 11.1519 6.20208 11.8082 6.85846C12.4646 7.51484 12.8334 8.40508 12.8334 9.33333C12.8334 10.2616 12.4646 11.1518 11.8082 11.8082C11.1519 12.4646 10.2616 12.8333 9.33337 12.8333Z" fill="black"/>
</svg>